<svg width="25" height="25" viewBox="0 0 25 25" fill="none" xmlns="http://www.w3.org/2000/svg">
<circle cx="12.5" cy="12.5" r="11.5" stroke="#42E8E0" stroke-opacity="0.7" stroke-width="2"/>
<path d="M10 5H15M5 7.5H20M18.3333 7.5L17.7489 16.2661C17.6612 17.5813 17.6174 18.2389 17.3333 18.7375C17.0833 19.1765 16.706 19.5294 16.2514 19.7497C15.735 20 15.0759 20 13.7578 20H11.2422C9.92409 20 9.26503 20 8.74861 19.7497C8.29396 19.5294 7.91674 19.1765 7.66665 18.7375C7.38259 18.2389 7.33875 17.5813 7.25107 16.2661L6.66667 7.5M10.8333 11.25V15.4167M14.1667 11.25V15.4167" stroke="#42E8E0" stroke-opacity="0.7" stroke-width="2" stroke-linecap="round" stroke-linejoin="round"/>
</svg>
