<svg width="14" height="20" viewBox="0 0 14 20" fill="none" xmlns="http://www.w3.org/2000/svg">
<path d="M4.49984 15.4167H9.49984M2.49984 1.66675H11.4998C11.9665 1.66675 12.1999 1.66675 12.3782 1.75758C12.535 1.83747 12.6624 1.96495 12.7423 2.12176C12.8332 2.30002 12.8332 2.53337 12.8332 3.00008V4.72885C12.8332 5.1365 12.8332 5.34032 12.7871 5.53213C12.7463 5.70219 12.679 5.86477 12.5876 6.01389C12.4845 6.18208 12.3404 6.32621 12.0521 6.61446L9.60931 9.05727C9.2793 9.38729 9.11429 9.55229 9.05247 9.74257C8.99809 9.90994 8.99809 10.0902 9.05247 10.2576C9.11429 10.4479 9.2793 10.6129 9.60931 10.9429L12.0521 13.3857C12.3404 13.674 12.4845 13.8181 12.5876 13.9863C12.679 14.1354 12.7463 14.298 12.7871 14.468C12.8332 14.6598 12.8332 14.8637 12.8332 15.2713V17.0001C12.8332 17.4668 12.8332 17.7001 12.7423 17.8784C12.6624 18.0352 12.535 18.1627 12.3782 18.2426C12.1999 18.3334 11.9665 18.3334 11.4998 18.3334H2.49984C2.03313 18.3334 1.79977 18.3334 1.62151 18.2426C1.46471 18.1627 1.33723 18.0352 1.25733 17.8784C1.1665 17.7001 1.1665 17.4668 1.1665 17.0001V15.2713C1.1665 14.8637 1.1665 14.6598 1.21255 14.468C1.25338 14.298 1.32072 14.1354 1.4121 13.9863C1.51517 13.8181 1.6593 13.674 1.94755 13.3857L4.39036 10.9429C4.72038 10.6129 4.88538 10.4479 4.94721 10.2576C5.00159 10.0902 5.00159 9.90994 4.94721 9.74257C4.88538 9.5523 4.72037 9.38728 4.39036 9.05727L1.94755 6.61446C1.6593 6.32621 1.51517 6.18208 1.4121 6.01389C1.32072 5.86477 1.25338 5.70219 1.21255 5.53213C1.1665 5.34032 1.1665 5.1365 1.1665 4.72885V3.00008C1.1665 2.53337 1.1665 2.30002 1.25733 2.12176C1.33723 1.96495 1.46471 1.83747 1.62151 1.75758C1.79977 1.66675 2.03313 1.66675 2.49984 1.66675Z" stroke="#42E8E0" stroke-opacity="0.7" stroke-width="2" stroke-linecap="round" stroke-linejoin="round"/>
</svg>
