<svg width="18" height="20" viewBox="0 0 18 20" fill="none" xmlns="http://www.w3.org/2000/svg">
<path d="M1.5 18.3334H9M8.16667 5.21011C8.69937 5.073 9.25783 5.00008 9.83333 5.00008C13.5152 5.00008 16.5 7.98485 16.5 11.6667C16.5 14.4646 14.7765 16.8598 12.3333 17.8488M3.58333 10.8334H6.91667C7.30388 10.8334 7.49749 10.8334 7.65848 10.8654C8.31964 10.997 8.83646 11.5138 8.96798 12.1749C9 12.3359 9 12.5295 9 12.9167C9 13.304 9 13.4976 8.96798 13.6586C8.83646 14.3197 8.31964 14.8365 7.65848 14.9681C7.49749 15.0001 7.30388 15.0001 6.91667 15.0001H3.58333C3.19612 15.0001 3.00251 15.0001 2.84152 14.9681C2.18037 14.8365 1.66354 14.3197 1.53202 13.6586C1.5 13.4976 1.5 13.304 1.5 12.9167C1.5 12.5295 1.5 12.3359 1.53202 12.1749C1.66354 11.5138 2.18037 10.997 2.84152 10.8654C3.00251 10.8334 3.19612 10.8334 3.58333 10.8334ZM2.33333 4.58341V10.8334H8.16667V4.58341C8.16667 2.97258 6.86083 1.66675 5.25 1.66675C3.63917 1.66675 2.33333 2.97258 2.33333 4.58341Z" stroke="#42E8E0" stroke-opacity="0.7" stroke-width="2" stroke-linecap="round" stroke-linejoin="round"/>
</svg>
