<svg width="18" height="19" viewBox="0 0 18 19" fill="none" xmlns="http://www.w3.org/2000/svg">
<path d="M16.5 9.08342V6.83342C16.5 5.43328 16.5 4.73322 16.2275 4.19844C15.9878 3.72803 15.6054 3.34558 15.135 3.1059C14.6002 2.83341 13.9001 2.83341 12.5 2.83341H5.5C4.09987 2.83341 3.3998 2.83341 2.86502 3.1059C2.39462 3.34558 2.01217 3.72803 1.77248 4.19844C1.5 4.73322 1.5 5.43328 1.5 6.83341V13.8334C1.5 15.2335 1.5 15.9336 1.77248 16.4684C2.01217 16.9388 2.39462 17.3212 2.86502 17.5609C3.3998 17.8334 4.09987 17.8334 5.5 17.8334H9.41667M16.5 7.83342H1.5M12.3333 1.16675V4.50008M5.66667 1.16675V4.50008M14 17.0001V12.0001M11.5 14.5001H16.5" stroke="#42E8E0" stroke-opacity="0.7" stroke-width="2" stroke-linecap="round" stroke-linejoin="round"/>
</svg>
