<svg width="400" height="344" viewBox="0 0 400 344" fill="none" xmlns="http://www.w3.org/2000/svg">
<path d="M275.475 35.9362C245.586 13.1768 209.03 0.898672 171.462 1.00063C133.894 1.10259 97.4058 13.5789 67.6401 36.5002C37.8745 59.4216 16.4895 91.511 6.79231 127.806C-2.9049 164.102 -0.374134 202.581 13.9931 237.293C28.3604 272.006 53.7639 301.018 86.2751 319.843C118.786 338.669 156.594 346.259 193.852 341.44C231.11 336.62 265.743 319.661 292.394 293.183C319.045 266.704 336.231 232.183 341.293 194.958C342.117 188.647 345.201 182.85 349.974 178.64C354.747 174.43 360.884 172.094 367.248 172.065H399.613" stroke="#D73655" stroke-miterlimit="10"/>
</svg>
