<svg width="345" height="166" viewBox="0 0 345 166" fill="none" xmlns="http://www.w3.org/2000/svg">
<path d="M155.612 163.822L82.1831 163.822C66.0094 163.697 50.2349 158.786 36.8482 149.709C23.4614 140.631 13.0615 127.794 6.95956 112.815C0.857613 97.8363 -0.673267 81.3861 2.5599 65.5384C5.79307 49.6907 13.6456 35.1549 25.1275 23.7633C36.6094 12.3717 51.2068 4.63432 67.0796 1.52645C82.9523 -1.58143 99.3899 0.0793408 114.32 6.29942C129.25 12.5195 142.005 23.0205 150.976 36.4786C159.948 49.9366 164.734 65.7494 164.732 81.9236L163.378 81.9236C163.378 65.9931 158.654 50.4204 149.804 37.1748C140.953 23.9291 128.374 13.6054 113.656 7.50906C98.9383 1.41275 82.7433 -0.182331 67.119 2.92554C51.4946 6.03341 37.1428 13.7047 25.8783 24.9692C14.6137 36.2337 6.9425 50.5855 3.83463 66.2099C0.726761 81.8342 2.32183 98.0292 8.41814 112.747C14.5145 127.465 24.8382 140.044 38.0839 148.895C51.3295 157.745 66.9022 162.469 82.8326 162.469L82.8326 163.065L83.5093 163.065L155.612 163.822Z" fill="#42E8E0"/>
<line x1="82.2098" y1="162.933" x2="344.988" y2="162.933" stroke="url(#paint0_linear_11_232)" stroke-width="1.8"/>
<path opacity="0.14" d="M149.991 89.5517C154.208 52.4815 127.575 19.0115 90.505 14.7945C53.4348 10.5774 19.9649 37.2102 15.7478 74.2803C11.5308 111.351 38.1635 144.82 75.2337 149.038C112.304 153.255 145.774 126.622 149.991 89.5517Z" fill="url(#paint1_linear_11_232)"/>
<path d="M125.601 118.496C145.807 94.8963 143.056 59.3842 119.456 39.1779C95.8556 18.9716 60.3435 21.7228 40.1372 45.3229C19.9309 68.923 22.6821 104.435 46.2822 124.641C69.8823 144.848 105.394 142.097 125.601 118.496Z" fill="#141320"/>
<rect x="159.282" y="80.7417" width="8.8082" height="8.8082" fill="#42E8E0"/>
<path d="M78.3437 75.9399L83.1562 75.9399C84.6979 75.9399 85.9687 75.6795 86.9687 75.1587C87.9687 74.617 88.7083 73.867 89.1875 72.9087C89.6875 71.9295 89.9375 70.7941 89.9375 69.5024C89.9375 68.3358 89.7083 67.3045 89.25 66.4087C88.8125 65.492 88.1354 64.7837 87.2187 64.2837C86.3021 63.7629 85.1458 63.5024 83.75 63.5024C82.6458 63.5024 81.625 63.7212 80.6875 64.1587C79.75 64.5962 79 65.2108 78.4375 66.0024C77.875 66.7941 77.5937 67.7524 77.5937 68.8774L68.5625 68.8774C68.5625 66.3774 69.2292 64.2004 70.5625 62.3462C71.9167 60.492 73.7292 59.0441 76 58.0024C78.2708 56.9608 80.7708 56.4399 83.5 56.4399C86.5833 56.4399 89.2812 56.9399 91.5937 57.9399C93.9062 58.9191 95.7083 60.367 97 62.2837C98.2917 64.2004 98.9375 66.5754 98.9375 69.4087C98.9375 70.8462 98.6042 72.242 97.9375 73.5962C97.2708 74.9295 96.3125 76.1379 95.0625 77.2212C93.8333 78.2837 92.3333 79.1379 90.5625 79.7837C88.7917 80.4087 86.8021 80.7212 84.5937 80.7212L78.3437 80.7212L78.3437 75.9399ZM78.3437 82.7837L78.3437 78.1274L84.5937 78.1274C87.0729 78.1274 89.25 78.4087 91.125 78.9712C93 79.5337 94.5729 80.3462 95.8437 81.4087C97.1146 82.4504 98.0729 83.6899 98.7187 85.1274C99.3646 86.5441 99.6875 88.117 99.6875 89.8462C99.6875 91.9712 99.2812 93.867 98.4687 95.5337C97.6562 97.1795 96.5104 98.5754 95.0312 99.7212C93.5729 100.867 91.8646 101.742 89.9062 102.346C87.9479 102.93 85.8125 103.221 83.5 103.221C81.5833 103.221 79.6979 102.961 77.8437 102.44C76.0104 101.898 74.3437 101.096 72.8437 100.034C71.3646 98.9504 70.1771 97.5962 69.2812 95.9712C68.4062 94.3254 67.9687 92.3774 67.9687 90.1274L77 90.1274C77 91.2941 77.2917 92.3358 77.875 93.2524C78.4583 94.1691 79.2604 94.8879 80.2812 95.4087C81.3229 95.9295 82.4792 96.1899 83.75 96.1899C85.1875 96.1899 86.4167 95.9295 87.4375 95.4087C88.4792 94.867 89.2708 94.117 89.8125 93.1587C90.375 92.1795 90.6562 91.0441 90.6562 89.7524C90.6562 88.0858 90.3542 86.7524 89.75 85.7524C89.1458 84.7316 88.2812 83.9816 87.1562 83.5024C86.0312 83.0233 84.6979 82.7837 83.1562 82.7837L78.3437 82.7837Z" fill="url(#paint2_linear_11_232)" fill-opacity="0.7"/>
<defs>
<linearGradient id="paint0_linear_11_232" x1="213.599" y1="163.831" x2="331.623" y2="186.599" gradientUnits="userSpaceOnUse">
<stop stop-color="#42E8E0"/>
<stop offset="1" stop-color="#26E2AC" stop-opacity="0"/>
</linearGradient>
<linearGradient id="paint1_linear_11_232" x1="15.7478" y1="74.2803" x2="149.991" y2="89.5517" gradientUnits="userSpaceOnUse">
<stop stop-color="#42E8E0"/>
</linearGradient>
<linearGradient id="paint2_linear_11_232" x1="-4.52795" y1="40.5962" x2="110.775" y2="40.5962" gradientUnits="userSpaceOnUse">
<stop stop-color="#42E8E0" stop-opacity="0.7"/>
<stop offset="1" stop-color="#42E8E0"/>
</linearGradient>
</defs>
</svg>
