<svg width="253" height="213" viewBox="0 0 253 213" fill="none" xmlns="http://www.w3.org/2000/svg">
<path d="M174.995 23.8597C156.243 10.01 133.31 2.53844 109.741 2.60048C86.1722 2.66253 63.281 10.2547 44.6072 24.203C25.9335 38.1512 12.5175 57.6785 6.43387 79.7652C0.350229 101.852 1.93788 125.267 10.9513 146.391C19.9648 167.514 35.9019 185.169 56.2981 196.625C76.6944 208.081 100.414 212.7 123.788 209.767C147.162 206.834 168.889 196.514 185.609 180.401C202.329 164.288 213.11 143.281 216.286 120.629C216.803 116.789 218.738 113.261 221.732 110.699C224.727 108.137 228.577 106.715 232.569 106.698H252.874" stroke="#07D3B7" stroke-width="4" stroke-miterlimit="10"/>
</svg>
