<svg width="103" height="21" viewBox="0 0 103 21" fill="none" xmlns="http://www.w3.org/2000/svg">
<path d="M4.16675 7.47217C4.16675 6.07204 4.16675 5.37197 4.43923 4.83719C4.67892 4.36679 5.06137 3.98434 5.53177 3.74465C6.06655 3.47217 6.76662 3.47217 8.16675 3.47217H11.8334C13.2335 3.47217 13.9336 3.47217 14.4684 3.74465C14.9388 3.98434 15.3212 4.36679 15.5609 4.83719C15.8334 5.37197 15.8334 6.07204 15.8334 7.47217V18.4722L10.0001 15.1388L4.16675 18.4722V7.47217Z" stroke="#F5951B" stroke-width="2" stroke-linecap="round" stroke-linejoin="round"/>
<path d="M29.3845 5.49561H31.4285V12.0718C31.4285 12.8374 31.2644 13.4823 30.9363 14.0063C30.6127 14.5304 30.1638 14.9246 29.5896 15.189C29.0199 15.4533 28.3637 15.5854 27.6208 15.5854C26.878 15.5854 26.2172 15.4533 25.6384 15.189C25.0642 14.9246 24.613 14.5304 24.2849 14.0063C23.9613 13.4823 23.7996 12.8374 23.7996 12.0718V5.49561H25.8503V12.0718C25.8503 12.5184 25.921 12.883 26.0623 13.1655C26.2035 13.4481 26.4063 13.6554 26.6707 13.7876C26.9395 13.9198 27.2563 13.9858 27.6208 13.9858C27.9945 13.9858 28.3113 13.9198 28.571 13.7876C28.8354 13.6554 29.0359 13.4481 29.1726 13.1655C29.3139 12.883 29.3845 12.5184 29.3845 12.0718V5.49561ZM34.9216 9.63135V15.4487H32.9529V8.05225H34.7986L34.9216 9.63135ZM34.6345 11.4907H34.1013C34.1013 10.9438 34.172 10.4517 34.3132 10.0142C34.4545 9.5721 34.6528 9.19613 34.908 8.88623C35.1632 8.57178 35.4662 8.33252 35.8171 8.16846C36.1726 7.99984 36.5691 7.91553 37.0066 7.91553C37.3529 7.91553 37.6697 7.96566 37.9568 8.06592C38.2439 8.16618 38.49 8.32568 38.6951 8.54443C38.9047 8.76318 39.0642 9.05257 39.1736 9.4126C39.2875 9.77262 39.3445 10.2124 39.3445 10.7319V15.4487H37.3621V10.7251C37.3621 10.397 37.3165 10.1418 37.2253 9.95947C37.1342 9.77718 36.9998 9.64958 36.822 9.57666C36.6488 9.49919 36.4347 9.46045 36.1794 9.46045C35.9151 9.46045 35.685 9.51286 35.489 9.61768C35.2976 9.72249 35.1381 9.86833 35.0105 10.0552C34.8875 10.2375 34.794 10.4517 34.7302 10.6978C34.6664 10.9438 34.6345 11.2082 34.6345 11.4907ZM45.2097 13.8354V4.94873H47.1921V15.4487H45.408L45.2097 13.8354ZM40.5339 11.8394V11.6958C40.5339 11.1307 40.5977 10.618 40.7253 10.1577C40.8529 9.69287 41.0398 9.29411 41.2859 8.96143C41.532 8.62874 41.835 8.37126 42.1951 8.18896C42.5551 8.00667 42.9653 7.91553 43.4255 7.91553C43.8585 7.91553 44.2367 8.00667 44.5603 8.18896C44.8884 8.37126 45.1664 8.63102 45.3943 8.96826C45.6267 9.30094 45.8136 9.69515 45.9548 10.1509C46.0961 10.6021 46.1986 11.0965 46.2625 11.6343V11.9487C46.1986 12.4637 46.0961 12.9422 45.9548 13.3843C45.8136 13.8263 45.6267 14.2137 45.3943 14.5464C45.1664 14.8745 44.8884 15.1297 44.5603 15.312C44.2322 15.4943 43.8494 15.5854 43.4119 15.5854C42.9516 15.5854 42.5414 15.492 42.1814 15.3052C41.8259 15.1183 41.5251 14.8563 41.2791 14.519C41.0375 14.1818 40.8529 13.7853 40.7253 13.3296C40.5977 12.8739 40.5339 12.3771 40.5339 11.8394ZM42.5027 11.6958V11.8394C42.5027 12.1447 42.5255 12.4295 42.571 12.6938C42.6212 12.9582 42.7009 13.1929 42.8103 13.3979C42.9242 13.5985 43.0701 13.7557 43.2478 13.8696C43.4301 13.979 43.6511 14.0337 43.9109 14.0337C44.2481 14.0337 44.5261 13.9585 44.7449 13.8081C44.9636 13.6532 45.13 13.4412 45.2439 13.1724C45.3624 12.9035 45.4307 12.5936 45.449 12.2427V11.3472C45.4353 11.0601 45.3943 10.8026 45.3259 10.5747C45.2621 10.3423 45.1664 10.144 45.0388 9.97998C44.9158 9.81592 44.7608 9.68831 44.574 9.59717C44.3917 9.50602 44.1752 9.46045 43.9246 9.46045C43.6694 9.46045 43.4506 9.51969 43.2683 9.63818C43.086 9.75212 42.9379 9.90934 42.824 10.1099C42.7146 10.3104 42.6326 10.5474 42.5779 10.8208C42.5278 11.0897 42.5027 11.3813 42.5027 11.6958ZM52.1345 15.5854C51.5603 15.5854 51.0453 15.4943 50.5896 15.312C50.1339 15.1252 49.7465 14.8677 49.4275 14.5396C49.113 14.2114 48.8715 13.8309 48.7029 13.3979C48.5343 12.9604 48.45 12.4956 48.45 12.0034V11.73C48.45 11.1694 48.5297 10.6567 48.6892 10.1919C48.8487 9.72705 49.0766 9.32373 49.3728 8.98193C49.6736 8.64014 50.0382 8.37809 50.4666 8.1958C50.8949 8.00895 51.378 7.91553 51.9158 7.91553C52.4399 7.91553 52.9047 8.00212 53.3103 8.17529C53.7159 8.34847 54.0554 8.59456 54.3289 8.91357C54.6069 9.23258 54.8165 9.6154 54.9578 10.062C55.099 10.5041 55.1697 10.9963 55.1697 11.5386V12.3589H49.2908V11.0464H53.2351V10.896C53.2351 10.6226 53.185 10.3787 53.0847 10.1646C52.989 9.9458 52.8432 9.77262 52.6472 9.64502C52.4513 9.51742 52.2006 9.45361 51.8953 9.45361C51.6355 9.45361 51.4122 9.51058 51.2253 9.62451C51.0385 9.73844 50.8858 9.89795 50.7673 10.103C50.6534 10.3081 50.5668 10.5496 50.5076 10.8276C50.4529 11.1011 50.4255 11.4019 50.4255 11.73V12.0034C50.4255 12.2996 50.4666 12.5731 50.5486 12.8237C50.6352 13.0744 50.7559 13.2909 50.9109 13.4731C51.0704 13.6554 51.2618 13.7967 51.4851 13.897C51.713 13.9972 51.9705 14.0474 52.2576 14.0474C52.613 14.0474 52.9434 13.979 53.2488 13.8423C53.5587 13.701 53.8253 13.4891 54.0486 13.2065L55.0056 14.2456C54.8507 14.4689 54.6388 14.6831 54.3699 14.8882C54.1056 15.0933 53.7865 15.2619 53.4128 15.394C53.0391 15.5216 52.613 15.5854 52.1345 15.5854ZM59.9138 8.05225V9.44678H55.6072V8.05225H59.9138ZM56.6736 6.22705H58.6423V13.2202C58.6423 13.4344 58.6697 13.5985 58.7244 13.7124C58.7836 13.8263 58.8702 13.9061 58.9841 13.9517C59.0981 13.9927 59.2416 14.0132 59.4148 14.0132C59.5378 14.0132 59.6472 14.0086 59.7429 13.9995C59.8432 13.9858 59.9275 13.9722 59.9958 13.9585L60.0027 15.4077C59.8341 15.4624 59.6518 15.5057 59.4558 15.5376C59.2598 15.5695 59.0434 15.5854 58.8064 15.5854C58.3735 15.5854 57.9952 15.5148 57.6716 15.3735C57.3526 15.2277 57.1065 14.9953 56.9333 14.6763C56.7602 14.3573 56.6736 13.938 56.6736 13.4185V6.22705ZM64.4392 15.5854C63.865 15.5854 63.35 15.4943 62.8943 15.312C62.4386 15.1252 62.0512 14.8677 61.7322 14.5396C61.4177 14.2114 61.1762 13.8309 61.0076 13.3979C60.8389 12.9604 60.7546 12.4956 60.7546 12.0034V11.73C60.7546 11.1694 60.8344 10.6567 60.9939 10.1919C61.1534 9.72705 61.3813 9.32373 61.6775 8.98193C61.9783 8.64014 62.3429 8.37809 62.7712 8.1958C63.1996 8.00895 63.6827 7.91553 64.2205 7.91553C64.7445 7.91553 65.2094 8.00212 65.615 8.17529C66.0206 8.34847 66.3601 8.59456 66.6335 8.91357C66.9115 9.23258 67.1212 9.6154 67.2625 10.062C67.4037 10.5041 67.4744 10.9963 67.4744 11.5386V12.3589H61.5955V11.0464H65.5398V10.896C65.5398 10.6226 65.4897 10.3787 65.3894 10.1646C65.2937 9.9458 65.1479 9.77262 64.9519 9.64502C64.7559 9.51742 64.5053 9.45361 64.2 9.45361C63.9402 9.45361 63.7169 9.51058 63.53 9.62451C63.3432 9.73844 63.1905 9.89795 63.072 10.103C62.9581 10.3081 62.8715 10.5496 62.8123 10.8276C62.7576 11.1011 62.7302 11.4019 62.7302 11.73V12.0034C62.7302 12.2996 62.7712 12.5731 62.8533 12.8237C62.9399 13.0744 63.0606 13.2909 63.2156 13.4731C63.3751 13.6554 63.5665 13.7967 63.7898 13.897C64.0177 13.9972 64.2751 14.0474 64.5623 14.0474C64.9177 14.0474 65.2481 13.979 65.5535 13.8423C65.8634 13.701 66.13 13.4891 66.3533 13.2065L67.3103 14.2456C67.1554 14.4689 66.9434 14.6831 66.6746 14.8882C66.4102 15.0933 66.0912 15.2619 65.7175 15.394C65.3438 15.5216 64.9177 15.5854 64.4392 15.5854ZM71.6511 14.0474C71.8927 14.0474 72.1069 14.0018 72.2937 13.9106C72.4806 13.8149 72.6264 13.6828 72.7312 13.5142C72.8406 13.341 72.8975 13.1382 72.9021 12.9058H74.7546C74.7501 13.4253 74.6111 13.8879 74.3376 14.2935C74.0642 14.6945 73.6973 15.0112 73.2371 15.2437C72.7768 15.4715 72.2618 15.5854 71.6921 15.5854C71.1179 15.5854 70.6166 15.4897 70.1882 15.2983C69.7644 15.1069 69.4112 14.8426 69.1287 14.5054C68.8461 14.1636 68.6342 13.7671 68.4929 13.3159C68.3516 12.8602 68.281 12.3726 68.281 11.853V11.6548C68.281 11.1307 68.3516 10.6431 68.4929 10.1919C68.6342 9.73617 68.8461 9.33968 69.1287 9.00244C69.4112 8.66064 69.7644 8.39404 70.1882 8.20264C70.6121 8.01123 71.1088 7.91553 71.6785 7.91553C72.2846 7.91553 72.8155 8.03174 73.2712 8.26416C73.7315 8.49658 74.0916 8.82926 74.3513 9.26221C74.6156 9.69059 74.7501 10.1987 74.7546 10.7866H72.9021C72.8975 10.5405 72.8451 10.3172 72.7449 10.1167C72.6492 9.91618 72.5079 9.75667 72.321 9.63818C72.1388 9.51514 71.9132 9.45361 71.6443 9.45361C71.3572 9.45361 71.1225 9.51514 70.9402 9.63818C70.7579 9.75667 70.6166 9.92074 70.5164 10.1304C70.4161 10.3354 70.3455 10.5701 70.3044 10.8345C70.268 11.0942 70.2498 11.3677 70.2498 11.6548V11.853C70.2498 12.1401 70.268 12.4159 70.3044 12.6802C70.3409 12.9445 70.4093 13.1792 70.5095 13.3843C70.6143 13.5894 70.7579 13.7511 70.9402 13.8696C71.1225 13.9881 71.3595 14.0474 71.6511 14.0474ZM79.5193 8.05225V9.44678H75.2126V8.05225H79.5193ZM76.2791 6.22705H78.2478V13.2202C78.2478 13.4344 78.2751 13.5985 78.3298 13.7124C78.3891 13.8263 78.4757 13.9061 78.5896 13.9517C78.7035 13.9927 78.8471 14.0132 79.0203 14.0132C79.1433 14.0132 79.2527 14.0086 79.3484 13.9995C79.4486 13.9858 79.533 13.9722 79.6013 13.9585L79.6082 15.4077C79.4395 15.4624 79.2572 15.5057 79.0613 15.5376C78.8653 15.5695 78.6488 15.5854 78.4119 15.5854C77.9789 15.5854 77.6007 15.5148 77.2771 15.3735C76.9581 15.2277 76.712 14.9953 76.5388 14.6763C76.3656 14.3573 76.2791 13.938 76.2791 13.4185V6.22705ZM84.0447 15.5854C83.4705 15.5854 82.9555 15.4943 82.4998 15.312C82.044 15.1252 81.6567 14.8677 81.3376 14.5396C81.0232 14.2114 80.7817 13.8309 80.613 13.3979C80.4444 12.9604 80.3601 12.4956 80.3601 12.0034V11.73C80.3601 11.1694 80.4399 10.6567 80.5994 10.1919C80.7589 9.72705 80.9867 9.32373 81.283 8.98193C81.5837 8.64014 81.9483 8.37809 82.3767 8.1958C82.8051 8.00895 83.2882 7.91553 83.8259 7.91553C84.35 7.91553 84.8149 8.00212 85.2205 8.17529C85.6261 8.34847 85.9656 8.59456 86.239 8.91357C86.517 9.23258 86.7266 9.6154 86.8679 10.062C87.0092 10.5041 87.0798 10.9963 87.0798 11.5386V12.3589H81.2009V11.0464H85.1453V10.896C85.1453 10.6226 85.0951 10.3787 84.9949 10.1646C84.8992 9.9458 84.7533 9.77262 84.5574 9.64502C84.3614 9.51742 84.1108 9.45361 83.8054 9.45361C83.5457 9.45361 83.3223 9.51058 83.1355 9.62451C82.9486 9.73844 82.796 9.89795 82.6775 10.103C82.5636 10.3081 82.477 10.5496 82.4177 10.8276C82.363 11.1011 82.3357 11.4019 82.3357 11.73V12.0034C82.3357 12.2996 82.3767 12.5731 82.4587 12.8237C82.5453 13.0744 82.6661 13.2909 82.821 13.4731C82.9806 13.6554 83.172 13.7967 83.3953 13.897C83.6231 13.9972 83.8806 14.0474 84.1677 14.0474C84.5232 14.0474 84.8536 13.979 85.1589 13.8423C85.4688 13.701 85.7354 13.4891 85.9587 13.2065L86.9158 14.2456C86.7608 14.4689 86.5489 14.6831 86.28 14.8882C86.0157 15.0933 85.6967 15.2619 85.323 15.394C84.9493 15.5216 84.5232 15.5854 84.0447 15.5854ZM92.5691 13.8354V4.94873H94.5515V15.4487H92.7673L92.5691 13.8354ZM87.8933 11.8394V11.6958C87.8933 11.1307 87.9571 10.618 88.0847 10.1577C88.2123 9.69287 88.3992 9.29411 88.6453 8.96143C88.8914 8.62874 89.1944 8.37126 89.5544 8.18896C89.9145 8.00667 90.3246 7.91553 90.7849 7.91553C91.2179 7.91553 91.5961 8.00667 91.9197 8.18896C92.2478 8.37126 92.5258 8.63102 92.7537 8.96826C92.9861 9.30094 93.1729 9.69515 93.3142 10.1509C93.4555 10.6021 93.558 11.0965 93.6218 11.6343V11.9487C93.558 12.4637 93.4555 12.9422 93.3142 13.3843C93.1729 13.8263 92.9861 14.2137 92.7537 14.5464C92.5258 14.8745 92.2478 15.1297 91.9197 15.312C91.5916 15.4943 91.2087 15.5854 90.7712 15.5854C90.311 15.5854 89.9008 15.492 89.5408 15.3052C89.1853 15.1183 88.8845 14.8563 88.6384 14.519C88.3969 14.1818 88.2123 13.7853 88.0847 13.3296C87.9571 12.8739 87.8933 12.3771 87.8933 11.8394ZM89.8621 11.6958V11.8394C89.8621 12.1447 89.8848 12.4295 89.9304 12.6938C89.9806 12.9582 90.0603 13.1929 90.1697 13.3979C90.2836 13.5985 90.4294 13.7557 90.6072 13.8696C90.7895 13.979 91.0105 14.0337 91.2703 14.0337C91.6075 14.0337 91.8855 13.9585 92.1042 13.8081C92.323 13.6532 92.4893 13.4412 92.6033 13.1724C92.7218 12.9035 92.7901 12.5936 92.8083 12.2427V11.3472C92.7947 11.0601 92.7537 10.8026 92.6853 10.5747C92.6215 10.3423 92.5258 10.144 92.3982 9.97998C92.2751 9.81592 92.1202 9.68831 91.9333 9.59717C91.7511 9.50602 91.5346 9.46045 91.2839 9.46045C91.0287 9.46045 90.81 9.51969 90.6277 9.63818C90.4454 9.75212 90.2973 9.90934 90.1833 10.1099C90.074 10.3104 89.9919 10.5474 89.9373 10.8208C89.8871 11.0897 89.8621 11.3813 89.8621 11.6958Z" fill="#F5951B"/>
</svg>
