<svg width="74" height="20" viewBox="0 0 74 20" fill="none" xmlns="http://www.w3.org/2000/svg">
<path d="M7.49984 8.75L9.1665 10.4167L12.9165 6.66667M15.8332 17.5V6.5C15.8332 5.09987 15.8332 4.3998 15.5607 3.86502C15.321 3.39462 14.9386 3.01217 14.4681 2.77248C13.9334 2.5 13.2333 2.5 11.8332 2.5H8.1665C6.76637 2.5 6.06631 2.5 5.53153 2.77248C5.06112 3.01217 4.67867 3.39462 4.43899 3.86502C4.1665 4.3998 4.1665 5.09987 4.1665 6.5V17.5L9.99984 14.1667L15.8332 17.5Z" stroke="#42E8E0" stroke-opacity="0.7" stroke-width="2" stroke-linecap="round" stroke-linejoin="round"/>
<path d="M30.5671 12.877V14.4766H25.2693V12.877H30.5671ZM25.9392 4.52344V14.4766H23.8884V4.52344H25.9392ZM29.8767 8.57715V10.1357H25.2693V8.57715H29.8767ZM30.5603 4.52344V6.12988H25.2693V4.52344H30.5603ZM35.8923 12.7061V7.08008H37.8611V14.4766H36.0085L35.8923 12.7061ZM36.1111 11.1885L36.6921 11.1748C36.6921 11.667 36.6352 12.125 36.5212 12.5488C36.4073 12.9681 36.2364 13.3327 36.0085 13.6426C35.7807 13.9479 35.4936 14.1872 35.1472 14.3604C34.8009 14.529 34.393 14.6133 33.9236 14.6133C33.5636 14.6133 33.2309 14.5632 32.9255 14.4629C32.6248 14.3581 32.365 14.1963 32.1462 13.9775C31.932 13.7542 31.7634 13.4694 31.6404 13.123C31.5219 12.7721 31.4626 12.3506 31.4626 11.8584V7.08008H33.4314V11.8721C33.4314 12.0908 33.4565 12.2754 33.5066 12.4258C33.5613 12.5762 33.6365 12.6992 33.7322 12.7949C33.8279 12.8906 33.9395 12.959 34.0671 13C34.1993 13.041 34.3451 13.0615 34.5046 13.0615C34.9102 13.0615 35.2292 12.9795 35.4617 12.8154C35.6986 12.6514 35.865 12.4281 35.9607 12.1455C36.061 11.8584 36.1111 11.5394 36.1111 11.1885ZM41.3337 8.50195V17.3203H39.365V7.08008H41.1902L41.3337 8.50195ZM46.0164 10.6963V10.8398C46.0164 11.3776 45.9526 11.8766 45.825 12.3369C45.7019 12.7972 45.5196 13.1982 45.2781 13.54C45.0365 13.8773 44.7358 14.1416 44.3757 14.333C44.0203 14.5199 43.6101 14.6133 43.1453 14.6133C42.6941 14.6133 42.3022 14.5221 41.9695 14.3398C41.6368 14.1576 41.3565 13.9023 41.1287 13.5742C40.9054 13.2415 40.7253 12.8564 40.5886 12.4189C40.4519 11.9814 40.3471 11.512 40.2742 11.0107V10.6348C40.3471 10.097 40.4519 9.60482 40.5886 9.1582C40.7253 8.70703 40.9054 8.31738 41.1287 7.98926C41.3565 7.65658 41.6345 7.39909 41.9626 7.2168C42.2953 7.03451 42.685 6.94336 43.1316 6.94336C43.601 6.94336 44.0134 7.03223 44.3689 7.20996C44.7289 7.3877 45.0297 7.6429 45.2712 7.97559C45.5173 8.30827 45.7019 8.70475 45.825 9.16504C45.9526 9.62533 46.0164 10.1357 46.0164 10.6963ZM44.0408 10.8398V10.6963C44.0408 10.3818 44.0134 10.0924 43.9587 9.82812C43.9086 9.55924 43.8266 9.32454 43.7126 9.12402C43.6033 8.9235 43.4574 8.76855 43.2751 8.65918C43.0974 8.54525 42.8809 8.48828 42.6257 8.48828C42.3569 8.48828 42.1267 8.53158 41.9353 8.61816C41.7485 8.70475 41.5958 8.83008 41.4773 8.99414C41.3588 9.1582 41.2699 9.35417 41.2107 9.58203C41.1514 9.8099 41.115 10.0674 41.1013 10.3545V11.3047C41.1241 11.6419 41.1879 11.945 41.2927 12.2139C41.3975 12.4782 41.5593 12.6878 41.7781 12.8428C41.9968 12.9977 42.2839 13.0752 42.6394 13.0752C42.8992 13.0752 43.1179 13.0182 43.2957 12.9043C43.4734 12.7858 43.6169 12.624 43.7263 12.4189C43.8403 12.2139 43.92 11.9769 43.9656 11.708C44.0157 11.4391 44.0408 11.1497 44.0408 10.8398ZM49.3181 3.97656V14.4766H47.3425V3.97656H49.3181ZM50.6306 10.8535V10.71C50.6306 10.1676 50.7081 9.66862 50.863 9.21289C51.018 8.7526 51.2436 8.35384 51.5398 8.0166C51.836 7.67936 52.2006 7.41732 52.6335 7.23047C53.0665 7.03906 53.5632 6.94336 54.1238 6.94336C54.6843 6.94336 55.1833 7.03906 55.6208 7.23047C56.0583 7.41732 56.4252 7.67936 56.7214 8.0166C57.0222 8.35384 57.2501 8.7526 57.405 9.21289C57.56 9.66862 57.6375 10.1676 57.6375 10.71V10.8535C57.6375 11.3913 57.56 11.8903 57.405 12.3506C57.2501 12.8063 57.0222 13.2051 56.7214 13.5469C56.4252 13.8841 56.0606 14.1462 55.6277 14.333C55.1947 14.5199 54.698 14.6133 54.1375 14.6133C53.5769 14.6133 53.0779 14.5199 52.6404 14.333C52.2074 14.1462 51.8406 13.8841 51.5398 13.5469C51.2436 13.2051 51.018 12.8063 50.863 12.3506C50.7081 11.8903 50.6306 11.3913 50.6306 10.8535ZM52.5994 10.71V10.8535C52.5994 11.1634 52.6267 11.4528 52.6814 11.7217C52.7361 11.9906 52.8227 12.2275 52.9412 12.4326C53.0642 12.6331 53.2237 12.7904 53.4197 12.9043C53.6156 13.0182 53.8549 13.0752 54.1375 13.0752C54.4109 13.0752 54.6456 13.0182 54.8416 12.9043C55.0375 12.7904 55.1947 12.6331 55.3132 12.4326C55.4317 12.2275 55.5183 11.9906 55.573 11.7217C55.6322 11.4528 55.6619 11.1634 55.6619 10.8535V10.71C55.6619 10.4092 55.6322 10.1266 55.573 9.8623C55.5183 9.59342 55.4294 9.35645 55.3064 9.15137C55.1879 8.94173 55.0307 8.77767 54.8347 8.65918C54.6388 8.54069 54.4018 8.48145 54.1238 8.48145C53.8458 8.48145 53.6088 8.54069 53.4128 8.65918C53.2214 8.77767 53.0642 8.94173 52.9412 9.15137C52.8227 9.35645 52.7361 9.59342 52.6814 9.8623C52.6267 10.1266 52.5994 10.4092 52.5994 10.71ZM60.9255 7.08008V14.4766H58.95V7.08008H60.9255ZM58.8269 5.15234C58.8269 4.86523 58.9272 4.62826 59.1277 4.44141C59.3282 4.25456 59.5971 4.16113 59.9343 4.16113C60.267 4.16113 60.5336 4.25456 60.7341 4.44141C60.9392 4.62826 61.0417 4.86523 61.0417 5.15234C61.0417 5.43945 60.9392 5.67643 60.7341 5.86328C60.5336 6.05013 60.267 6.14355 59.9343 6.14355C59.5971 6.14355 59.3282 6.05013 59.1277 5.86328C58.9272 5.67643 58.8269 5.43945 58.8269 5.15234ZM66.9207 12.8633V3.97656H68.9031V14.4766H67.1189L66.9207 12.8633ZM62.2449 10.8672V10.7236C62.2449 10.1585 62.3087 9.64583 62.4363 9.18555C62.5639 8.7207 62.7507 8.32194 62.9968 7.98926C63.2429 7.65658 63.546 7.39909 63.906 7.2168C64.266 7.03451 64.6762 6.94336 65.1365 6.94336C65.5694 6.94336 65.9477 7.03451 66.2712 7.2168C66.5994 7.39909 66.8774 7.65885 67.1052 7.99609C67.3376 8.32878 67.5245 8.72298 67.6658 9.17871C67.807 9.62988 67.9096 10.1243 67.9734 10.6621V10.9766C67.9096 11.4915 67.807 11.9701 67.6658 12.4121C67.5245 12.8542 67.3376 13.2415 67.1052 13.5742C66.8774 13.9023 66.5994 14.1576 66.2712 14.3398C65.9431 14.5221 65.5603 14.6133 65.1228 14.6133C64.6625 14.6133 64.2524 14.5199 63.8923 14.333C63.5369 14.1462 63.2361 13.8841 62.99 13.5469C62.7485 13.2096 62.5639 12.8132 62.4363 12.3574C62.3087 11.9017 62.2449 11.4049 62.2449 10.8672ZM64.2136 10.7236V10.8672C64.2136 11.1725 64.2364 11.4574 64.282 11.7217C64.3321 11.986 64.4119 12.2207 64.5212 12.4258C64.6352 12.6263 64.781 12.7835 64.9587 12.8975C65.141 13.0068 65.3621 13.0615 65.6218 13.0615C65.9591 13.0615 66.2371 12.9863 66.4558 12.8359C66.6746 12.681 66.8409 12.4691 66.9548 12.2002C67.0733 11.9313 67.1417 11.6214 67.1599 11.2705V10.375C67.1462 10.0879 67.1052 9.8304 67.0369 9.60254C66.9731 9.37012 66.8774 9.17188 66.7498 9.00781C66.6267 8.84375 66.4718 8.71615 66.2849 8.625C66.1026 8.53385 65.8861 8.48828 65.6355 8.48828C65.3803 8.48828 65.1615 8.54753 64.9792 8.66602C64.797 8.77995 64.6488 8.93717 64.5349 9.1377C64.4255 9.33822 64.3435 9.5752 64.2888 9.84863C64.2387 10.1175 64.2136 10.4092 64.2136 10.7236Z" fill="#42E8E0" fill-opacity="0.7"/>
</svg>
