<svg width="400" height="344" viewBox="0 0 400 344" fill="none" xmlns="http://www.w3.org/2000/svg">
<path d="M275.475 35.9362C245.586 13.1768 209.03 0.898672 171.462 1.00063C133.894 1.10259 97.4057 13.5789 67.6401 36.5002C37.8744 59.4216 16.4895 91.511 6.79234 127.806C-2.90487 164.102 -0.37419 202.581 13.9931 237.293C28.3604 272.006 53.7638 301.018 86.2751 319.843C118.786 338.669 156.594 346.259 193.852 341.44C231.11 336.62 265.743 319.661 292.394 293.183C319.045 266.704 336.231 232.183 341.293 194.958C342.116 188.652 345.197 182.858 349.963 178.649C354.73 174.44 360.861 172.101 367.22 172.065H399.613" stroke="#F58A21" stroke-miterlimit="10"/>
</svg>
