<svg width="345" height="166" viewBox="0 0 345 166" fill="none" xmlns="http://www.w3.org/2000/svg">
<path d="M155.612 163.822L82.1831 163.822C66.0094 163.697 50.2349 158.786 36.8482 149.709C23.4614 140.631 13.0615 127.794 6.95956 112.815C0.857613 97.8363 -0.673267 81.3861 2.5599 65.5384C5.79307 49.6907 13.6456 35.1549 25.1275 23.7633C36.6094 12.3717 51.2068 4.63432 67.0796 1.52645C82.9523 -1.58143 99.3899 0.0793408 114.32 6.29942C129.25 12.5195 142.005 23.0205 150.976 36.4786C159.948 49.9366 164.734 65.7494 164.732 81.9236L163.378 81.9236C163.378 65.9931 158.654 50.4204 149.804 37.1748C140.953 23.9291 128.374 13.6054 113.656 7.50906C98.9383 1.41275 82.7433 -0.182331 67.119 2.92554C51.4946 6.03341 37.1428 13.7047 25.8783 24.9692C14.6137 36.2337 6.9425 50.5855 3.83463 66.2099C0.726761 81.8342 2.32183 98.0292 8.41814 112.747C14.5145 127.465 24.8382 140.044 38.0839 148.895C51.3295 157.745 66.9022 162.469 82.8326 162.469L82.8326 163.065L83.5093 163.065L155.612 163.822Z" fill="#42E8E0"/>
<line x1="82.2098" y1="162.933" x2="344.988" y2="162.933" stroke="url(#paint0_linear_11_210)" stroke-width="1.8"/>
<path opacity="0.14" d="M149.991 89.5517C154.208 52.4815 127.575 19.0115 90.505 14.7945C53.4348 10.5774 19.9649 37.2102 15.7478 74.2803C11.5308 111.351 38.1635 144.82 75.2337 149.038C112.304 153.255 145.774 126.622 149.991 89.5517Z" fill="url(#paint1_linear_11_210)"/>
<path d="M125.601 118.496C145.807 94.8963 143.056 59.3842 119.456 39.1779C95.8555 18.9716 60.3434 21.7228 40.1371 45.3229C19.9307 68.923 22.682 104.435 46.2821 124.641C69.8822 144.848 105.394 142.097 125.601 118.496Z" fill="#141320"/>
<rect x="159.281" y="80.7417" width="8.8082" height="8.8082" fill="#42E8E0"/>
<path d="M98.8274 94.9688L98.8274 102L67.7024 102L67.7024 96L82.4211 80.2188C83.9003 78.5729 85.067 77.125 85.9211 75.875C86.7753 74.6042 87.3899 73.4688 87.7649 72.4688C88.1607 71.4479 88.3586 70.4792 88.3586 69.5625C88.3586 68.1875 88.1295 67.0104 87.6711 66.0313C87.2128 65.0313 86.5357 64.2604 85.6399 63.7188C84.7649 63.1771 83.6816 62.9063 82.3899 62.9063C81.0149 62.9063 79.8274 63.2396 78.8274 63.9063C77.8482 64.5729 77.0982 65.5 76.5774 66.6875C76.0774 67.875 75.8274 69.2188 75.8274 70.7188L66.7961 70.7188C66.7961 68.0104 67.442 65.5313 68.7336 63.2813C70.0253 61.0104 71.8482 59.2083 74.2024 57.875C76.5566 56.5208 79.3482 55.8438 82.5774 55.8438C85.7649 55.8438 88.4524 56.3646 90.6399 57.4063C92.8482 58.4271 94.5149 59.9063 95.6399 61.8438C96.7857 63.7604 97.3586 66.0521 97.3586 68.7188C97.3586 70.2188 97.1191 71.6875 96.6399 73.125C96.1607 74.5417 95.4732 75.9583 94.5774 77.375C93.7024 78.7708 92.6399 80.1875 91.3899 81.625C90.1399 83.0625 88.7545 84.5521 87.2336 86.0938L79.3274 94.9688L98.8274 94.9688Z" fill="url(#paint2_linear_11_210)" fill-opacity="0.7"/>
<defs>
<linearGradient id="paint0_linear_11_210" x1="213.599" y1="163.831" x2="331.623" y2="186.599" gradientUnits="userSpaceOnUse">
<stop stop-color="#42E8E0"/>
<stop offset="1" stop-color="#26E2AC" stop-opacity="0"/>
</linearGradient>
<linearGradient id="paint1_linear_11_210" x1="15.7478" y1="74.2803" x2="149.991" y2="89.5517" gradientUnits="userSpaceOnUse">
<stop stop-color="#42E8E0"/>
</linearGradient>
<linearGradient id="paint2_linear_11_210" x1="-5.95056" y1="40" x2="109.352" y2="40" gradientUnits="userSpaceOnUse">
<stop stop-color="#42E8E0" stop-opacity="0.7"/>
<stop offset="1" stop-color="#42E8E0"/>
</linearGradient>
</defs>
</svg>
