<svg width="91" height="20" viewBox="0 0 91 20" fill="none" xmlns="http://www.w3.org/2000/svg">
<path d="M7.91675 6.25L12.0834 10.4167M12.0834 6.25L7.91675 10.4167M15.8334 17.5V6.5C15.8334 5.09987 15.8334 4.3998 15.5609 3.86502C15.3212 3.39462 14.9388 3.01217 14.4684 2.77248C13.9336 2.5 13.2335 2.5 11.8334 2.5H8.16675C6.76662 2.5 6.06655 2.5 5.53177 2.77248C5.06137 3.01217 4.67892 3.39462 4.43923 3.86502C4.16675 4.3998 4.16675 5.09987 4.16675 6.5V17.5L10.0001 14.1667L15.8334 17.5Z" stroke="#D2355E" stroke-width="2" stroke-linecap="round" stroke-linejoin="round"/>
<path d="M27.9355 7.01221L25.2285 15.2632H23.0479L26.7461 5.31006H28.1338L27.9355 7.01221ZM30.1846 15.2632L27.4707 7.01221L27.252 5.31006H28.6533L32.3721 15.2632H30.1846ZM30.0615 11.5581V13.1646H24.8047V11.5581H30.0615ZM34.8809 9.4458V15.2632H32.9121V7.8667H34.7578L34.8809 9.4458ZM34.5938 11.3052H34.0605C34.0605 10.7583 34.1312 10.2661 34.2725 9.82861C34.4137 9.38656 34.612 9.01058 34.8672 8.70068C35.1224 8.38623 35.4255 8.14697 35.7764 7.98291C36.1318 7.81429 36.5283 7.72998 36.9658 7.72998C37.3122 7.72998 37.6289 7.78011 37.916 7.88037C38.2031 7.98063 38.4492 8.14014 38.6543 8.35889C38.8639 8.57764 39.0234 8.86702 39.1328 9.22705C39.2467 9.58708 39.3037 10.0269 39.3037 10.5464V15.2632H37.3213V10.5396C37.3213 10.2114 37.2757 9.95622 37.1846 9.77393C37.0934 9.59163 36.959 9.46403 36.7812 9.39111C36.6081 9.31364 36.3939 9.2749 36.1387 9.2749C35.8743 9.2749 35.6442 9.32731 35.4482 9.43213C35.2568 9.53695 35.0973 9.68278 34.9697 9.86963C34.8467 10.0519 34.7533 10.2661 34.6895 10.5122C34.6257 10.7583 34.5938 11.0226 34.5938 11.3052ZM44.2051 15.3999C43.6309 15.3999 43.1159 15.3088 42.6602 15.1265C42.2044 14.9396 41.8171 14.6821 41.498 14.354C41.1836 14.0259 40.9421 13.6453 40.7734 13.2124C40.6048 12.7749 40.5205 12.3101 40.5205 11.8179V11.5444C40.5205 10.9839 40.6003 10.4712 40.7598 10.0063C40.9193 9.5415 41.1471 9.13818 41.4434 8.79639C41.7441 8.45459 42.1087 8.19255 42.5371 8.01025C42.9655 7.8234 43.4486 7.72998 43.9863 7.72998C44.5104 7.72998 44.9753 7.81657 45.3809 7.98975C45.7865 8.16292 46.126 8.40902 46.3994 8.72803C46.6774 9.04704 46.887 9.42985 47.0283 9.87646C47.1696 10.3185 47.2402 10.8107 47.2402 11.353V12.1733H41.3613V10.8608H45.3057V10.7104C45.3057 10.437 45.2555 10.1932 45.1553 9.979C45.0596 9.76025 44.9137 9.58708 44.7178 9.45947C44.5218 9.33187 44.2712 9.26807 43.9658 9.26807C43.7061 9.26807 43.4827 9.32503 43.2959 9.43896C43.109 9.5529 42.9564 9.7124 42.8379 9.91748C42.724 10.1226 42.6374 10.3641 42.5781 10.6421C42.5234 10.9155 42.4961 11.2163 42.4961 11.5444V11.8179C42.4961 12.1141 42.5371 12.3875 42.6191 12.6382C42.7057 12.8888 42.8265 13.1053 42.9814 13.2876C43.141 13.4699 43.3324 13.6112 43.5557 13.7114C43.7835 13.8117 44.041 13.8618 44.3281 13.8618C44.6836 13.8618 45.014 13.7935 45.3193 13.6567C45.6292 13.5155 45.8958 13.3035 46.1191 13.021L47.0762 14.0601C46.9212 14.2834 46.7093 14.4976 46.4404 14.7026C46.1761 14.9077 45.8571 15.0763 45.4834 15.2085C45.1097 15.3361 44.6836 15.3999 44.2051 15.3999ZM52.7363 13.4927V7.8667H54.7051V15.2632H52.8525L52.7363 13.4927ZM52.9551 11.9751L53.5361 11.9614C53.5361 12.4536 53.4792 12.9116 53.3652 13.3354C53.2513 13.7547 53.0804 14.1193 52.8525 14.4292C52.6247 14.7345 52.3376 14.9738 51.9912 15.147C51.6449 15.3156 51.237 15.3999 50.7676 15.3999C50.4076 15.3999 50.0749 15.3498 49.7695 15.2495C49.4688 15.1447 49.209 14.9829 48.9902 14.7642C48.776 14.5409 48.6074 14.256 48.4844 13.9097C48.3659 13.5588 48.3066 13.1372 48.3066 12.645V7.8667H50.2754V12.6587C50.2754 12.8774 50.3005 13.062 50.3506 13.2124C50.4053 13.3628 50.4805 13.4858 50.5762 13.5815C50.6719 13.6772 50.7835 13.7456 50.9111 13.7866C51.0433 13.8276 51.1891 13.8481 51.3486 13.8481C51.7542 13.8481 52.0732 13.7661 52.3057 13.6021C52.5426 13.438 52.709 13.2147 52.8047 12.9321C52.9049 12.645 52.9551 12.326 52.9551 11.9751ZM58.1777 9.28857V18.1069H56.209V7.8667H58.0342L58.1777 9.28857ZM62.8604 11.4829V11.6265C62.8604 12.1642 62.7965 12.6632 62.6689 13.1235C62.5459 13.5838 62.3636 13.9849 62.1221 14.3267C61.8805 14.6639 61.5798 14.9282 61.2197 15.1196C60.8643 15.3065 60.4541 15.3999 59.9893 15.3999C59.5381 15.3999 59.1462 15.3088 58.8135 15.1265C58.4808 14.9442 58.2005 14.689 57.9727 14.3608C57.7493 14.0282 57.5693 13.6431 57.4326 13.2056C57.2959 12.7681 57.1911 12.2987 57.1182 11.7974V11.4214C57.1911 10.8836 57.2959 10.3914 57.4326 9.94482C57.5693 9.49365 57.7493 9.104 57.9727 8.77588C58.2005 8.4432 58.4785 8.18571 58.8066 8.00342C59.1393 7.82113 59.529 7.72998 59.9756 7.72998C60.445 7.72998 60.8574 7.81885 61.2129 7.99658C61.5729 8.17432 61.8737 8.42952 62.1152 8.76221C62.3613 9.09489 62.5459 9.49137 62.6689 9.95166C62.7965 10.4119 62.8604 10.9224 62.8604 11.4829ZM60.8848 11.6265V11.4829C60.8848 11.1685 60.8574 10.8791 60.8027 10.6147C60.7526 10.3459 60.6706 10.1112 60.5566 9.91064C60.4473 9.71012 60.3014 9.55518 60.1191 9.4458C59.9414 9.33187 59.7249 9.2749 59.4697 9.2749C59.2008 9.2749 58.9707 9.3182 58.7793 9.40479C58.5924 9.49137 58.4398 9.6167 58.3213 9.78076C58.2028 9.94482 58.1139 10.1408 58.0547 10.3687C57.9954 10.5965 57.959 10.854 57.9453 11.1411V12.0913C57.9681 12.4285 58.0319 12.7316 58.1367 13.0005C58.2415 13.2648 58.4033 13.4744 58.6221 13.6294C58.8408 13.7843 59.1279 13.8618 59.4834 13.8618C59.7432 13.8618 59.9619 13.8049 60.1396 13.6909C60.3174 13.5724 60.4609 13.4106 60.5703 13.2056C60.6842 13.0005 60.764 12.7635 60.8096 12.4946C60.8597 12.2257 60.8848 11.9364 60.8848 11.6265ZM66.1621 4.76318V15.2632H64.1865V4.76318H66.1621ZM67.4746 11.6401V11.4966C67.4746 10.9543 67.5521 10.4552 67.707 9.99951C67.862 9.53923 68.0876 9.14046 68.3838 8.80322C68.68 8.46598 69.0446 8.20394 69.4775 8.01709C69.9105 7.82568 70.4072 7.72998 70.9678 7.72998C71.5283 7.72998 72.0273 7.82568 72.4648 8.01709C72.9023 8.20394 73.2692 8.46598 73.5654 8.80322C73.8662 9.14046 74.0941 9.53923 74.249 9.99951C74.404 10.4552 74.4814 10.9543 74.4814 11.4966V11.6401C74.4814 12.1779 74.404 12.6769 74.249 13.1372C74.0941 13.5929 73.8662 13.9917 73.5654 14.3335C73.2692 14.6707 72.9046 14.9328 72.4717 15.1196C72.0387 15.3065 71.542 15.3999 70.9814 15.3999C70.4209 15.3999 69.9219 15.3065 69.4844 15.1196C69.0514 14.9328 68.6846 14.6707 68.3838 14.3335C68.0876 13.9917 67.862 13.5929 67.707 13.1372C67.5521 12.6769 67.4746 12.1779 67.4746 11.6401ZM69.4434 11.4966V11.6401C69.4434 11.95 69.4707 12.2394 69.5254 12.5083C69.5801 12.7772 69.6667 13.0142 69.7852 13.2192C69.9082 13.4198 70.0677 13.577 70.2637 13.6909C70.4596 13.8049 70.6989 13.8618 70.9814 13.8618C71.2549 13.8618 71.4896 13.8049 71.6855 13.6909C71.8815 13.577 72.0387 13.4198 72.1572 13.2192C72.2757 13.0142 72.3623 12.7772 72.417 12.5083C72.4762 12.2394 72.5059 11.95 72.5059 11.6401V11.4966C72.5059 11.1958 72.4762 10.9132 72.417 10.6489C72.3623 10.38 72.2734 10.1431 72.1504 9.93799C72.0319 9.72835 71.8747 9.56429 71.6787 9.4458C71.4827 9.32731 71.2458 9.26807 70.9678 9.26807C70.6898 9.26807 70.4528 9.32731 70.2568 9.4458C70.0654 9.56429 69.9082 9.72835 69.7852 9.93799C69.6667 10.1431 69.5801 10.38 69.5254 10.6489C69.4707 10.9132 69.4434 11.1958 69.4434 11.4966ZM77.7695 7.8667V15.2632H75.7939V7.8667H77.7695ZM75.6709 5.93896C75.6709 5.65186 75.7712 5.41488 75.9717 5.22803C76.1722 5.04118 76.4411 4.94775 76.7783 4.94775C77.111 4.94775 77.3776 5.04118 77.5781 5.22803C77.7832 5.41488 77.8857 5.65186 77.8857 5.93896C77.8857 6.22607 77.7832 6.46305 77.5781 6.6499C77.3776 6.83675 77.111 6.93018 76.7783 6.93018C76.4411 6.93018 76.1722 6.83675 75.9717 6.6499C75.7712 6.46305 75.6709 6.22607 75.6709 5.93896ZM83.7646 13.6499V4.76318H85.7471V15.2632H83.9629L83.7646 13.6499ZM79.0889 11.6538V11.5103C79.0889 10.9451 79.1527 10.4325 79.2803 9.97217C79.4079 9.50732 79.5947 9.10856 79.8408 8.77588C80.0869 8.4432 80.39 8.18571 80.75 8.00342C81.11 7.82113 81.5202 7.72998 81.9805 7.72998C82.4134 7.72998 82.7917 7.82113 83.1152 8.00342C83.4434 8.18571 83.7214 8.44548 83.9492 8.78271C84.1816 9.1154 84.3685 9.5096 84.5098 9.96533C84.651 10.4165 84.7536 10.911 84.8174 11.4487V11.7632C84.7536 12.2782 84.651 12.7567 84.5098 13.1987C84.3685 13.6408 84.1816 14.0282 83.9492 14.3608C83.7214 14.689 83.4434 14.9442 83.1152 15.1265C82.7871 15.3088 82.4043 15.3999 81.9668 15.3999C81.5065 15.3999 81.0964 15.3065 80.7363 15.1196C80.3809 14.9328 80.0801 14.6707 79.834 14.3335C79.5924 13.9963 79.4079 13.5998 79.2803 13.144C79.1527 12.6883 79.0889 12.1916 79.0889 11.6538ZM81.0576 11.5103V11.6538C81.0576 11.9591 81.0804 12.244 81.126 12.5083C81.1761 12.7726 81.2559 13.0073 81.3652 13.2124C81.4792 13.4129 81.625 13.5701 81.8027 13.6841C81.985 13.7935 82.2061 13.8481 82.4658 13.8481C82.8031 13.8481 83.0811 13.7729 83.2998 13.6226C83.5186 13.4676 83.6849 13.2557 83.7988 12.9868C83.9173 12.7179 83.9857 12.408 84.0039 12.0571V11.1616C83.9902 10.8745 83.9492 10.617 83.8809 10.3892C83.8171 10.1567 83.7214 9.9585 83.5938 9.79443C83.4707 9.63037 83.3158 9.50277 83.1289 9.41162C82.9466 9.32048 82.7301 9.2749 82.4795 9.2749C82.2243 9.2749 82.0055 9.33415 81.8232 9.45264C81.641 9.56657 81.4928 9.7238 81.3789 9.92432C81.2695 10.1248 81.1875 10.3618 81.1328 10.6353C81.0827 10.9041 81.0576 11.1958 81.0576 11.5103Z" fill="#D2355E"/>
</svg>
